{
  "accessors": [
    {
      "bufferView": 2,
      "componentType": 5126,
      "count": 4,
      "max": [167.02890014648438, 167.02890014648438, 0.0],
      "min": [-167.02890014648438, -167.02890014648438, 0.0],
      "type": "VEC3"
    },
    {
      "bufferView": 2,
      "byteOffset": 48,
      "componentType": 5126,
      "count": 4,
      "max": [0.0, 0.0, 1.0],
      "min": [0.0, 0.0, 1.0],
      "type": "VEC3"
    },
    {
      "bufferView": 1,
      "componentType": 5126,
      "count": 4,
      "max": [1.0, 1.0],
      "min": [2.9802322387695313e-8, 2.9802322387695313e-8],
      "type": "VEC2"
    },
    {
      "bufferView": 0,
      "componentType": 5125,
      "count": 6,
      "type": "SCALAR"
    },
    {
      "bufferView": 2,
      "byteOffset": 96,
      "componentType": 5126,
      "count": 57640,
      "max": [51.43024444580078, 51.186500549316406, 31.78665542602539],
      "min": [-51.43024444580078, -51.186500549316406, -0.39935874938964844],
      "type": "VEC3"
    },
    {
      "bufferView": 2,
      "byteOffset": 691776,
      "componentType": 5126,
      "count": 57640,
      "max": [1.0, 1.0, 1.0],
      "min": [-1.0, -1.0, -1.0],
      "type": "VEC3"
    },
    {
      "bufferView": 1,
      "byteOffset": 32,
      "componentType": 5126,
      "count": 57640,
      "max": [0.999500036239624, 0.9957574605941772],
      "min": [0.0005000000237487257, 0.0005000000237487257],
      "type": "VEC2"
    },
    {
      "bufferView": 1,
      "byteOffset": 461152,
      "componentType": 5126,
      "count": 57640,
      "max": [4.004983901977539, 3.4936459064483643],
      "min": [-6.226851463317871, -2.3694589138031006],
      "type": "VEC2"
    },
    {
      "bufferView": 0,
      "byteOffset": 24,
      "componentType": 5125,
      "count": 322080,
      "type": "SCALAR"
    },
    {
      "bufferView": 2,
      "byteOffset": 1383456,
      "componentType": 5126,
      "count": 4804,
      "max": [41.90406036376953, 41.90406036376953, 0.37825584411621094],
      "min": [-41.90406036376953, -41.904056549072266, -6.348060607910156],
      "type": "VEC3"
    },
    {
      "bufferView": 2,
      "byteOffset": 1441104,
      "componentType": 5126,
      "count": 4804,
      "max": [0.9994699358940125, 0.9994699358940125, 0.7642592787742615],
      "min": [-0.9994699358940125, -0.9994699358940125, -1.0],
      "type": "VEC3"
    },
    {
      "bufferView": 1,
      "byteOffset": 922272,
      "componentType": 5126,
      "count": 4804,
      "max": [0.87595134973526, 0.7829727530479431],
      "min": [0.32295942306518555, 0.2940824627876282],
      "type": "VEC2"
    },
    {
      "bufferView": 1,
      "byteOffset": 960704,
      "componentType": 5126,
      "count": 4804,
      "max": [-72.74659729003906, 3.9586472511291504],
      "min": [-82.07463073730469, -2.767669200897217],
      "type": "VEC2"
    },
    {
      "bufferView": 0,
      "byteOffset": 1288344,
      "componentType": 5125,
      "count": 27720,
      "type": "SCALAR"
    }
  ],
  "asset": {
    "extras": {
      "author": "MADE.COM (https://sketchfab.com/made-it)",
      "license": "CC-BY-NC-4.0 (http://creativecommons.org/licenses/by-nc/4.0/)",
      "source": "https://sketchfab.com/3d-models/branagh-large-ottoman-pearl-grey-c2dd618c3d9b4c308ab70a371d872a41",
      "title": "Branagh Large Ottoman, Pearl Grey"
    },
    "generator": "Sketchfab-12.68.0",
    "version": "2.0"
  },
  "bufferViews": [
    {
      "buffer": 0,
      "byteLength": 1399224,
      "name": "floatBufferViews",
      "target": 34963
    },
    {
      "buffer": 0,
      "byteLength": 999136,
      "byteOffset": 1399224,
      "byteStride": 8,
      "name": "floatBufferViews",
      "target": 34962
    },
    {
      "buffer": 0,
      "byteLength": 1498752,
      "byteOffset": 2398360,
      "byteStride": 12,
      "name": "floatBufferViews",
      "target": 34962
    }
  ],
  "buffers": [
    {
      "byteLength": 3897112,
      "uri": "3dModel/largeChair/largeChair.bin"
    }
  ],
  "images": [
    {
      "uri": "3dModel/largeChair/largeChairTextures/FLOOR_baseColor.png"
    },
    {
      "uri": "3dModel/largeChair/largeChairTextures/FABRIC_baseColor.jpeg"
    }
  ],
  "materials": [
    {
      "alphaMode": "BLEND",
      "doubleSided": true,
      "name": "FLOOR",
      "pbrMetallicRoughness": {
        "baseColorFactor": [0.0, 0.0, 0.0, 1.0],
        "baseColorTexture": {
          "index": 0
        },
        "metallicFactor": 0.0
      }
    },
    {
      "doubleSided": true,
      "name": "FABRIC",
      "pbrMetallicRoughness": {
        "baseColorTexture": {
          "index": 1
        },
        "metallicFactor": 0.0,
        "roughnessFactor": 0.894809991
      }
    },
    {
      "doubleSided": true,
      "name": "PLASTIC",
      "pbrMetallicRoughness": {
        "baseColorFactor": [0.00784314, 0.00784314, 0.00784314, 1.0],
        "metallicFactor": 0.0,
        "roughnessFactor": 0.2578125
      }
    }
  ],
  "meshes": [
    {
      "name": "Plane001_FLOOR_0",
      "primitives": [
        {
          "attributes": {
            "NORMAL": 1,
            "POSITION": 0,
            "TEXCOORD_0": 2
          },
          "indices": 3,
          "material": 0,
          "mode": 4
        }
      ]
    },
    {
      "name": "Branagh_Large_Ottoman_PearlGrey_FABRIC_0",
      "primitives": [
        {
          "attributes": {
            "NORMAL": 5,
            "POSITION": 4,
            "TEXCOORD_0": 6,
            "TEXCOORD_1": 7
          },
          "indices": 8,
          "material": 1,
          "mode": 4
        }
      ]
    },
    {
      "name": "Branagh_Large_Ottoman_PearlGrey_PLASTIC_0",
      "primitives": [
        {
          "attributes": {
            "NORMAL": 10,
            "POSITION": 9,
            "TEXCOORD_0": 11,
            "TEXCOORD_1": 12
          },
          "indices": 13,
          "material": 2,
          "mode": 4
        }
      ]
    }
  ],
  "nodes": [
    {
      "children": [1],
      "matrix": [
        1.0, 0.0, 0.0, 0.0, 0.0, 2.220446049250313e-16, -1.0, 0.0, 0.0, 1.0,
        2.220446049250313e-16, 0.0, 0.0, 0.0, 0.0, 1.0
      ],
      "name": "Sketchfab_model"
    },
    {
      "children": [2],
      "matrix": [
        1.0, 0.0, 0.0, 0.0, 0.0, 0.0, 1.0, 0.0, 0.0, -1.0, 0.0, 0.0, 0.0, 0.0,
        0.0, 1.0
      ],
      "name": "82f5ebf1bd8a4216aab6f009b332d590.fbx"
    },
    {
      "children": [3, 5],
      "name": "RootNode"
    },
    {
      "children": [4],
      "matrix": [
        1.0, 0.0, 0.0, 0.0, 0.0, 2.220446049250313e-16, -1.0, 0.0, 0.0, 1.0,
        2.220446049250313e-16, 0.0, 0.0, 0.0, 0.0, 1.0
      ],
      "name": "Plane001"
    },
    {
      "mesh": 0,
      "name": "Plane001_FLOOR_0"
    },
    {
      "children": [6, 7],
      "matrix": [
        1.0, 0.0, 0.0, 0.0, 0.0, 2.220446049250313e-16, -1.0, 0.0, 0.0, 1.0,
        2.220446049250313e-16, 0.0, 0.0, 6.386398792266846,
        1.1819589644801454e-6, 1.0
      ],
      "name": "Branagh_Large_Ottoman_PearlGrey"
    },
    {
      "mesh": 1,
      "name": "Branagh_Large_Ottoman_PearlGrey_FABRIC_0"
    },
    {
      "mesh": 2,
      "name": "Branagh_Large_Ottoman_PearlGrey_PLASTIC_0"
    }
  ],
  "samplers": [
    {
      "magFilter": 9729,
      "minFilter": 9987,
      "wrapS": 10497,
      "wrapT": 10497
    }
  ],
  "scene": 0,
  "scenes": [
    {
      "name": "Sketchfab_Scene",
      "nodes": [0]
    }
  ],
  "textures": [
    {
      "sampler": 0,
      "source": 0
    },
    {
      "sampler": 0,
      "source": 1
    }
  ]
}
